<svg width="434" height="113" viewBox="0 0 434 113" fill="none" xmlns="http://www.w3.org/2000/svg">
<g clip-path="url(#clip0_15832_810)">
<path d="M168.222 79.1265C165.265 79.1265 162.402 79.1122 159.531 79.1265C158.901 79.1265 158.467 78.9409 158.038 78.4269C152.933 72.2729 147.801 66.1331 142.677 59.9934C138.613 55.1197 134.539 50.246 130.47 45.3771C129.225 43.8921 127.976 42.4167 126.74 40.9317C126.559 40.708 126.454 40.4225 126.32 40.1702C126.177 40.2464 126.034 40.3177 125.891 40.3891C125.858 40.8746 125.786 41.3601 125.786 41.8408C125.777 53.7395 125.786 65.6382 125.786 77.5369C125.786 79.1075 125.786 79.117 124.231 79.117C118.311 79.117 112.387 79.117 106.462 79.117C105.15 79.117 105.102 79.0742 105.102 77.7415V6.65397C105.102 5.11666 105.236 4.99292 106.762 4.98816C111.514 4.98816 116.265 5.00243 121.016 4.97388C121.908 4.97388 122.542 5.24993 123.115 5.93529C129.893 14.0883 136.686 22.2317 143.488 30.3752C146.999 34.5873 150.515 38.79 154.035 42.9926C154.303 43.3115 154.608 43.597 154.889 43.9016C154.989 43.8874 155.09 43.8778 155.18 43.8636C155.252 43.4257 155.381 42.9878 155.381 42.5499C155.395 38.6043 155.39 34.6635 155.39 30.7179V6.94906C155.39 4.98816 155.4 4.98816 157.375 4.98816H173.97C175.265 4.98816 175.913 5.61958 175.916 6.88243V60.912C175.916 61.8496 175.902 62.7825 175.931 63.7249C175.945 64.0485 176.069 64.3674 176.207 64.9861C176.87 64.2865 177.371 63.8153 177.815 63.2965C179.532 61.2832 181.23 59.2557 182.943 57.2329C183.649 56.4 184.04 56.3524 184.722 57.1853C186.211 58.9939 187.904 60.5884 189.912 61.7925C193.418 63.901 197.173 64.6482 201.06 63.0395C203.541 62.0114 204.915 59.9553 205.578 57.3614C206.384 54.2107 206.164 51.0075 206.179 47.8187C206.207 39.7371 206.188 31.6507 206.188 23.5739C206.188 23.255 206.198 22.9266 206.188 22.603C206.141 21.4607 205.931 21.2465 204.795 21.2465C200.078 21.237 195.36 21.2465 190.637 21.2465C187.708 21.2465 184.78 21.2465 181.846 21.2465C180.496 21.2465 180.243 20.9848 180.238 19.6616C180.238 15.3591 180.238 11.0612 180.238 6.75868C180.238 5.25469 180.496 5.00243 181.984 5.00243H225.441C226.786 5.00243 227.006 5.22613 227.006 6.60162C227.006 21.5369 227.02 36.4769 226.991 51.4121C226.991 53.768 227.001 56.1716 226.548 58.4609C225.994 61.2785 225.45 64.1151 224.129 66.7662C223.18 68.689 222.13 70.4928 220.752 72.1206C218.61 74.6574 215.967 76.4898 212.929 77.8319C207.004 80.4497 200.741 80.978 194.43 80.4735C188.195 79.9832 182.313 78.108 177.176 74.3623C176.909 74.1672 176.541 74.11 176.231 73.9911C176.122 74.3099 175.94 74.6336 175.931 74.962C175.893 75.9948 175.883 77.0323 175.931 78.0699C175.969 78.86 175.683 79.1598 174.867 79.1456C172.692 79.1075 170.507 79.136 168.227 79.136L168.222 79.1265Z" fill="white"/>
<path d="M27.6864 48.1233C25.4539 45.477 23.2692 42.8831 21.0796 40.2892C20.9747 40.332 20.8745 40.3653 20.7696 40.4082C20.7362 40.9031 20.6789 41.3981 20.6789 41.8931C20.6789 53.7585 20.6789 65.6239 20.6789 77.494C20.6789 79.117 20.6789 79.117 19.0666 79.117C13.1372 79.117 7.21734 79.117 1.29272 79.117C0.071544 79.117 0.00476074 79.0456 0.00476074 77.8652V6.57305C0.00476074 5.12617 0.157408 4.98814 1.64572 4.98814C6.36347 4.98814 11.086 5.00242 15.8038 4.97386C16.7578 4.96434 17.4352 5.24991 18.0648 6.00191C23.6222 12.6985 29.2224 19.3618 34.8036 26.0393C38.8773 30.913 42.9416 35.801 47.0153 40.6795C47.9169 41.7646 48.8328 42.8307 49.7439 43.9111C49.8536 43.8969 49.9633 43.8826 50.0778 43.8683C50.1446 43.4352 50.2686 42.9973 50.2734 42.5642C50.2877 38.6852 50.2877 34.8015 50.2877 30.9273V6.95856C50.2877 4.98338 50.2973 4.98338 52.2626 4.98338H69.3543C70.7234 4.98338 70.8188 5.06905 70.8188 6.38267C70.8188 30.2467 70.8188 54.1155 70.8379 77.9747C70.8379 78.8647 70.5469 79.1408 69.6596 79.136C64.6127 79.1027 59.5658 79.117 54.5189 79.1217C53.8702 79.1217 53.3884 78.9837 52.9304 78.4221C47.8311 72.2586 42.7031 66.1189 37.5703 59.9791C34.6843 56.5095 31.7792 53.0588 28.8837 49.594C28.4878 49.1323 28.1109 48.6516 27.6864 48.1185V48.1233Z" fill="white"/>
<path d="M232.568 36.0058C232.596 26.9533 232.63 17.9959 232.654 9.04335C232.654 8.49601 232.639 7.94867 232.596 7.39657C232.515 6.2781 232.949 5.76407 234.08 5.76407C240.591 5.75455 247.098 5.74979 253.609 5.75455C258.036 5.75455 262.468 5.81167 266.894 5.76883C268.235 5.75455 268.984 6.39708 269.547 7.49176C270.787 9.8953 272.051 12.2893 273.32 14.6833C274.889 17.639 276.482 20.5851 278.057 23.5407C279.583 26.4154 281.091 29.3044 282.612 32.1744C284.139 35.0491 285.684 37.9096 287.22 40.77C289.214 44.4919 291.222 48.2043 293.202 51.931C295.024 55.3721 296.78 58.8513 298.645 62.2733C300.424 65.5526 302.323 68.77 304.131 72.035C305.457 74.4148 306.74 76.8183 308.023 79.2171C308.581 80.2689 308.276 80.6973 307.083 80.6925C299.37 80.6544 291.652 80.6021 283.938 80.6164C282.603 80.6164 281.859 80.2451 281.267 78.941C279.445 74.9288 277.446 70.9879 275.471 67.0328C275.299 66.6806 274.865 66.3903 274.479 66.2285C274.107 66.0666 273.654 66.0762 273.229 66.0714C267.371 66.0286 261.509 65.9905 255.656 65.9619C254.015 65.9524 253.657 66.3046 253.652 67.9514V79.0077C253.652 80.1975 253.566 80.2737 252.374 80.2784C246.22 80.2784 240.067 80.2642 233.918 80.2927C232.978 80.2927 232.649 79.95 232.649 79.0553C232.649 68.9985 232.649 58.9512 232.63 48.8944C232.63 44.6204 232.582 40.3559 232.563 35.9915L232.568 36.0058ZM254.859 28.2478C254.616 27.8909 254.372 27.5387 254.129 27.1817C254.029 27.196 253.934 27.2198 253.838 27.2341C253.781 27.7529 253.671 28.2669 253.671 28.7904C253.657 35.1586 253.657 41.5315 253.671 47.8997C253.671 49.7654 253.323 50.2366 255.88 50.1795C259.128 50.1081 262.386 50.2604 265.64 50.3032C266.618 50.3128 266.808 49.9796 266.355 49.1229C265.797 48.0711 265.22 47.0287 264.643 45.9816C261.409 40.1132 258.174 34.2353 254.864 28.2478H254.859Z" fill="white"/>
<path d="M98.5624 64.139C98.5624 68.7652 98.5624 73.2914 98.5624 77.8177C98.5624 79.0599 98.4956 79.1218 97.2267 79.1265C91.1399 79.1265 85.0531 79.1265 78.9615 79.1265C77.6736 79.1265 77.5638 79.0361 77.5638 77.7415C77.5638 59.5413 77.5638 41.3315 77.5734 23.1265C77.5734 22.7743 77.7642 22.4174 77.8644 22.0652C78.184 22.1937 78.5274 22.2841 78.8089 22.465C83.0067 25.1017 87.4239 27.3101 92.0701 29.0521C93.9353 29.7517 95.8481 30.3181 97.7037 31.032C98.0567 31.1653 98.3477 31.6555 98.5242 32.0506C98.6578 32.3504 98.5528 32.7502 98.5528 33.1072C98.5624 43.4162 98.5624 53.73 98.5624 64.1437V64.139Z" fill="white"/>
<path d="M79.0093 4.9834H96.8595C98.4337 4.9834 98.5577 5.10714 98.5577 6.71109C98.5577 12.689 98.5577 18.6621 98.5577 24.64C98.5577 26.0441 98.5004 26.0584 97.1362 25.5872C92.0082 23.8119 87.1187 21.5273 82.3675 18.9191C81.0796 18.21 79.8441 17.4056 78.5704 16.6679C77.8501 16.2491 77.5496 15.6446 77.5544 14.8355C77.5687 12.056 77.5544 9.27645 77.5687 6.50167C77.583 5.25469 77.8024 5.04527 79.0093 4.9834Z" fill="white"/>
<path d="M21.4422 112.5C19.9825 112.5 18.7231 111.981 17.7023 110.958C16.6767 109.944 16.152 108.692 16.152 107.246V102.091C16.152 100.649 16.6719 99.3971 17.7023 98.3739C18.7327 97.3506 19.992 96.8318 21.4422 96.8318H29.3417C30.8013 96.8318 32.0655 97.3506 33.0958 98.3691C34.1262 99.3972 34.6461 100.649 34.6461 102.086V102.862H30.8252V102.086C30.8252 101.682 30.6869 101.353 30.3911 101.053C30.0906 100.749 29.7567 100.611 29.3417 100.611H21.4422C21.0224 100.611 20.6885 100.749 20.3975 101.049C20.1065 101.344 19.9729 101.672 19.9729 102.086V107.241C19.9729 107.664 20.1065 107.998 20.3927 108.293C20.6742 108.569 21.0128 108.702 21.4422 108.702H29.3417C29.7662 108.702 30.1049 108.569 30.4006 108.278C30.6821 107.998 30.8252 107.655 30.8252 107.241V106.465H34.6461V107.241C34.6461 108.683 34.1262 109.935 33.0958 110.958C32.0655 111.981 30.8013 112.5 29.3369 112.5H21.4374H21.4422Z" fill="#6C2BF2"/>
<path d="M29.3417 111.729C30.5963 111.729 31.6648 111.296 32.5473 110.415C33.425 109.54 33.8686 108.488 33.8686 107.246H31.6028C31.6028 107.869 31.3786 108.402 30.9397 108.84C30.4961 109.268 29.9666 109.483 29.3369 109.483H21.4374C20.8078 109.483 20.2735 109.268 19.8346 108.84C19.4053 108.407 19.1907 107.869 19.1907 107.246V102.091C19.1907 101.482 19.4053 100.954 19.8346 100.516C20.2735 100.068 20.8078 99.8446 21.4374 99.8446H29.3369C29.9666 99.8446 30.4961 100.068 30.9397 100.516C31.3786 100.954 31.6028 101.482 31.6028 102.091H33.8686C33.8686 100.854 33.425 99.8018 32.5473 98.9213C31.6648 98.0455 30.5963 97.6077 29.3417 97.6077H21.4422C20.1924 97.6077 19.1334 98.0455 18.2509 98.9213C17.3684 99.8018 16.9296 100.854 16.9296 102.091V107.246C16.9296 108.483 17.3684 109.54 18.2509 110.415C19.1286 111.296 20.1924 111.729 21.4422 111.729H29.3417Z" fill="#6C2BF2"/>
<path d="M57.6005 112.5C56.1408 112.5 54.8815 111.981 53.8606 110.958C52.835 109.944 52.3103 108.692 52.3103 107.246V102.091C52.3103 100.649 52.8303 99.3971 53.8606 98.3739C54.891 97.3506 56.1456 96.8318 57.6005 96.8318H65.5C66.9597 96.8318 68.2238 97.3506 69.2541 98.3691C70.2845 99.3972 70.8045 100.649 70.8045 102.086V107.241C70.8045 108.683 70.2845 109.935 69.2541 110.958C68.2238 111.981 66.9597 112.5 65.4952 112.5H57.5957H57.6005ZM57.6005 100.616C57.1807 100.616 56.8468 100.754 56.5558 101.053C56.2648 101.349 56.1313 101.677 56.1313 102.091V107.246C56.1313 107.669 56.2648 108.002 56.551 108.297C56.8325 108.573 57.1712 108.707 57.6005 108.707H65.5C65.9245 108.707 66.2632 108.573 66.559 108.283C66.8404 108.002 66.9835 107.66 66.9835 107.246V102.091C66.9835 101.686 66.8452 101.358 66.5494 101.058C66.2489 100.754 65.915 100.616 65.5 100.616H57.6005Z" fill="#6C2BF2"/>
<path d="M65.5 111.729C66.7546 111.729 67.8231 111.296 68.7056 110.415C69.5833 109.54 70.027 108.488 70.027 107.246V102.091C70.027 100.854 69.5833 99.8018 68.7056 98.9213C67.8231 98.0455 66.7546 97.6077 65.5 97.6077H57.6005C56.3507 97.6077 55.2917 98.0455 54.4092 98.9213C53.5267 99.8018 53.0879 100.854 53.0879 102.091V107.246C53.0879 108.483 53.5267 109.54 54.4092 110.415C55.287 111.296 56.3507 111.729 57.6005 111.729H65.5ZM65.5 109.478H57.6005C56.9709 109.478 56.4366 109.264 55.9977 108.835C55.5684 108.402 55.3537 107.864 55.3537 107.241V102.086C55.3537 101.477 55.5684 100.949 55.9977 100.511C56.4366 100.064 56.9709 99.8399 57.6005 99.8399H65.5C66.1297 99.8399 66.6592 100.064 67.1028 100.511C67.5417 100.949 67.7659 101.477 67.7659 102.086V107.241C67.7659 107.864 67.5417 108.397 67.1028 108.835C66.6592 109.264 66.1297 109.478 65.5 109.478Z" fill="#6C2BF2"/>
<path d="M104.869 112.5L92.7857 102.719V112.5H88.9647V96.8367H91.5406L103.643 106.622V96.8367H107.464V112.5H104.869Z" fill="#6C2BF2"/>
<path d="M106.686 111.729H105.15L92.0129 101.092V111.729H89.7471V97.6125H91.2688L104.425 108.25V97.6125H106.691V111.729H106.686Z" fill="#6C2BF2"/>
<path d="M130.909 112.5C129.45 112.5 128.19 111.981 127.169 110.958C126.144 109.944 125.619 108.692 125.619 107.246V102.091C125.619 100.649 126.139 99.3971 127.169 98.3739C128.2 97.3506 129.459 96.8318 130.909 96.8318H138.809C140.269 96.8318 141.533 97.3506 142.563 98.3691C143.593 99.3972 144.113 100.649 144.113 102.086V102.862H140.292V102.086C140.292 101.682 140.154 101.353 139.858 101.053C139.558 100.749 139.224 100.611 138.809 100.611H130.909C130.49 100.611 130.156 100.749 129.865 101.049C129.574 101.344 129.44 101.672 129.44 102.086V107.241C129.44 107.664 129.574 107.998 129.86 108.293C130.141 108.569 130.48 108.702 130.909 108.702H138.809C139.233 108.702 139.572 108.569 139.868 108.278C140.149 107.998 140.292 107.655 140.292 107.241V106.465H144.113V107.241C144.113 108.683 143.593 109.935 142.563 110.958C141.533 111.981 140.269 112.5 138.804 112.5H130.905H130.909Z" fill="#6C2BF2"/>
<path d="M138.809 111.729C140.063 111.729 141.132 111.296 142.014 110.415C142.892 109.54 143.336 108.488 143.336 107.246H141.07C141.07 107.869 140.846 108.402 140.407 108.84C139.963 109.268 139.434 109.483 138.804 109.483H130.905C130.275 109.483 129.741 109.268 129.302 108.84C128.872 108.407 128.658 107.869 128.658 107.246V102.091C128.658 101.482 128.872 100.954 129.302 100.516C129.741 100.068 130.275 99.8446 130.905 99.8446H138.804C139.434 99.8446 139.963 100.068 140.407 100.516C140.846 100.954 141.07 101.482 141.07 102.091H143.336C143.336 100.854 142.892 99.8018 142.014 98.9213C141.132 98.0455 140.063 97.6077 138.809 97.6077H130.909C129.66 97.6077 128.601 98.0455 127.718 98.9213C126.836 99.8018 126.397 100.854 126.397 102.091V107.246C126.397 108.483 126.836 109.54 127.718 110.415C128.596 111.296 129.66 111.729 130.909 111.729H138.809Z" fill="#6C2BF2"/>
<path d="M162.269 112.5V96.8367H179.628V100.616H166.095V102.781H178.025V106.56H166.095V108.707H179.628V112.5H162.269Z" fill="#6C2BF2"/>
<path d="M178.85 111.729H163.051V97.6125H178.85V99.8447H165.312V103.557H177.247V105.789H165.312V109.483H178.85V111.734V111.729Z" fill="#6C2BF2"/>
<path d="M197.793 112.5V96.8367H212.122C213.258 96.8367 214.245 97.246 215.051 98.0503C215.872 98.8547 216.287 99.8399 216.287 100.977V103.257C216.287 104.395 215.872 105.38 215.047 106.189C214.24 106.989 213.253 107.398 212.118 107.398H201.609V112.505H197.788L197.793 112.5ZM212.127 103.614C212.227 103.614 212.294 103.586 212.37 103.514C212.447 103.443 212.471 103.371 212.471 103.257V100.977C212.471 100.868 212.442 100.792 212.361 100.716C212.28 100.639 212.208 100.62 212.122 100.62H201.614V103.619H212.122L212.127 103.614Z" fill="#6C2BF2"/>
<path d="M200.836 111.729H198.57V97.6125H212.122C213.048 97.6125 213.84 97.941 214.503 98.5978C215.17 99.2546 215.509 100.049 215.509 100.978V103.257C215.509 104.19 215.17 104.98 214.503 105.637C213.84 106.294 213.048 106.622 212.122 106.622H200.836V111.729ZM212.127 104.39C212.432 104.39 212.699 104.285 212.919 104.062C213.138 103.843 213.248 103.576 213.248 103.257V100.978C213.248 100.663 213.138 100.397 212.919 100.173C212.695 99.9542 212.432 99.8447 212.127 99.8447H200.841V104.39H212.127Z" fill="#6C2BF2"/>
<path d="M239.193 112.5V100.616H232.763V96.8367H249.459V100.616H243.014V112.5H239.193Z" fill="#6C2BF2"/>
<path d="M242.232 111.729H239.966V99.8447H233.536V97.6125H248.677V99.8447H242.232V111.729Z" fill="#6C2BF2"/>
<path d="M270.095 112.5C268.95 112.5 267.958 112.091 267.147 111.286C266.336 110.482 265.926 109.497 265.926 108.359V107.584H269.747V108.359C269.747 108.464 269.771 108.526 269.842 108.597C269.923 108.678 269.985 108.702 270.09 108.702H280.256C280.356 108.702 280.423 108.673 280.499 108.602C280.575 108.531 280.599 108.459 280.599 108.359V106.912C280.599 106.803 280.57 106.727 280.489 106.651C280.408 106.575 280.337 106.556 280.251 106.556H270.085C268.941 106.556 267.948 106.146 267.137 105.342C266.326 104.537 265.916 103.552 265.916 102.415V100.968C265.916 99.8304 266.326 98.8452 267.137 98.0408C267.948 97.2365 268.941 96.8271 270.085 96.8271H280.251C281.386 96.8271 282.374 97.2365 283.18 98.0408C284 98.8452 284.415 99.8304 284.415 100.968V101.744H280.594V100.968C280.594 100.849 280.561 100.792 280.504 100.739C280.408 100.644 280.332 100.625 280.251 100.625H270.085C269.985 100.625 269.918 100.654 269.842 100.725C269.771 100.792 269.742 100.844 269.742 100.968V102.415C269.742 102.548 269.78 102.61 269.837 102.667C269.918 102.748 269.98 102.776 270.085 102.776H280.251C281.386 102.776 282.374 103.186 283.18 103.99C284 104.795 284.415 105.78 284.415 106.917V108.364C284.415 109.502 284 110.487 283.175 111.296C282.369 112.096 281.381 112.505 280.246 112.505H270.081L270.095 112.5Z" fill="#6C2BF2"/>
<path d="M280.26 111.729H270.095C269.155 111.729 268.359 111.401 267.7 110.744C267.042 110.087 266.708 109.297 266.708 108.364H268.974C268.974 108.673 269.084 108.935 269.303 109.154C269.522 109.378 269.785 109.483 270.095 109.483H280.26C280.566 109.483 280.833 109.378 281.052 109.154C281.272 108.935 281.381 108.673 281.381 108.364V106.917C281.381 106.603 281.272 106.337 281.052 106.113C280.828 105.894 280.566 105.784 280.26 105.784H270.095C269.155 105.784 268.359 105.456 267.7 104.799C267.037 104.142 266.708 103.352 266.708 102.419V100.973C266.708 100.045 267.037 99.2497 267.7 98.5929C268.363 97.9361 269.16 97.6077 270.095 97.6077H280.26C281.186 97.6077 281.978 97.9361 282.641 98.5929C283.308 99.2497 283.647 100.045 283.647 100.973H281.381C281.381 100.658 281.272 100.392 281.052 100.183C280.828 99.9636 280.566 99.8541 280.26 99.8541H270.095C269.785 99.8541 269.522 99.9636 269.303 100.183C269.079 100.392 268.974 100.654 268.974 100.973V102.419C268.974 102.738 269.084 103.005 269.303 103.224C269.522 103.448 269.785 103.552 270.095 103.552H280.26C281.186 103.552 281.978 103.881 282.641 104.537C283.308 105.194 283.647 105.989 283.647 106.917V108.364C283.647 109.297 283.308 110.087 282.641 110.744C281.978 111.401 281.186 111.729 280.26 111.729Z" fill="#6C2BF2"/>
<path d="M287.764 7.79634H283.566V5.31665H295.039V7.79634H290.822V18.4005H287.764V7.79634Z" fill="white"/>
<path d="M308.643 18.4005L308.629 10.5521L304.76 17.0202H303.386L299.518 10.7187V18.4005H296.66V5.31665H299.189L304.111 13.4411L308.972 5.31665H311.467L311.501 18.4005H308.643Z" fill="white"/>
<path d="M355.42 5.84967C365.934 -0.532789 379.719 -0.989699 390.791 4.37423C401.858 9.73816 409.958 20.6564 412.209 32.7312C411.294 31.1844 409.347 30.6656 407.601 30.242C388.659 25.6872 370.661 17.2772 355.425 5.85443L355.42 5.84967Z" fill="url(#paint0_linear_15832_810)" stroke="black" stroke-width="0.75" stroke-miterlimit="10"/>
<path d="M351.26 8.27223C353.092 10.3807 355.353 12.0751 357.643 13.6838C370.962 23.0552 385.864 30.1706 401.529 34.6445C392.623 35.7677 384.318 39.8561 375.441 41.165C375.031 41.2268 374.611 41.2792 374.196 41.2411C373.862 41.2078 373.537 41.1174 373.218 41.0222C368.92 39.78 364.722 38.1046 360.319 37.2955C351.509 35.6773 343.871 33.3071 336.043 33.7449C338.109 23.8548 343.452 14.6785 351.108 8.06757C351.122 8.05805 351.094 8.07233 351.27 8.27699L351.26 8.27223Z" fill="url(#paint1_linear_15832_810)" stroke="black" stroke-width="0.75" stroke-miterlimit="10"/>
<path d="M335.652 38.9091C336.773 48.6327 342.913 57.6424 351.561 62.259C352.243 62.6208 352.944 62.9634 353.693 63.1396C355.411 63.5441 357.199 63.0634 358.898 62.5875C363.377 61.3309 367.856 60.0697 372.34 58.8132C373.027 58.6228 373.723 58.4277 374.434 58.4515C375.026 58.4753 375.603 58.6466 376.166 58.8227C381.299 60.4171 386.369 62.1972 391.373 64.1628C389.327 65.2052 387.276 66.2427 385.229 67.2851C383.417 68.2084 381.599 69.1317 379.705 69.8837C377.707 70.6833 374.553 71.9303 373.032 72.6728C364.393 76.8659 357.414 76.942 349.224 78.0177C348.56 78.1033 347.893 78.3032 347.234 78.17C346.109 77.9415 345.307 76.9706 344.606 76.0615C342.416 73.2344 340.217 70.393 338.457 67.2851C337.064 64.8292 335.948 62.2115 335.156 59.4986C333.172 52.6925 333.291 45.2915 335.657 38.9043L335.652 38.9091Z" fill="url(#paint2_linear_15832_810)" stroke="black" stroke-width="0.75" stroke-miterlimit="10"/>
<path d="M412.725 39.2327C412.548 44.6727 410.387 49.932 407.215 54.363C404.048 58.7941 399.902 62.4541 395.49 65.6573C382.043 75.4237 365.724 81.2113 349.109 82.0965C352.052 87.1511 357.361 92.9576 362.432 97.5743C366.582 95.9656 371.486 94.89 375.636 93.2813C379.08 91.9486 382.524 90.2162 385.864 88.6408C394.922 84.362 404.515 77.6845 409.61 69.0746C413.226 62.9634 413.717 55.7623 414.165 48.6802C414.38 45.3296 414.261 41.8123 412.72 39.2374L412.725 39.2327Z" fill="url(#paint3_linear_15832_810)" stroke="black" stroke-width="0.75" stroke-miterlimit="10"/>
<path d="M409.572 18.3909C417.223 16.7013 425.189 13.9075 432.173 10.3569C430.823 14.3739 429.22 18.3862 426.568 21.9558C426.344 22.2556 426.22 22.4984 425.943 22.7459C425.695 22.9695 425.375 22.9743 425.065 23.1028C421.55 24.5307 417.49 25.4064 413.698 25.3969C413.521 25.3969 413.33 25.3921 413.178 25.2969C412.963 25.1637 413.02 24.8971 412.958 24.6544C412.367 22.3603 410.893 20.1567 409.572 18.3862V18.3909Z" fill="url(#paint4_linear_15832_810)" stroke="black" stroke-width="0.75" stroke-miterlimit="10"/>
<path d="M414.638 29.7042C418.172 29.2378 421.707 28.7713 425.242 28.3049C425.547 28.2621 425.876 28.224 426.158 28.3525C426.406 28.462 426.587 28.6761 426.754 28.8856C429.416 32.1839 431.734 35.7583 433.656 39.5325C427.842 38.0333 421.855 37.1813 415.849 37.0005C415.782 34.3209 415.129 31.6556 414.633 29.6994L414.638 29.7042Z" fill="url(#paint5_linear_15832_810)" stroke="black" stroke-width="0.75" stroke-miterlimit="10"/>
<path d="M341.186 37.938C352.296 39.8751 363.329 42.2548 374.253 45.0676C374.677 45.1771 375.102 45.2866 375.541 45.2866C375.932 45.2866 376.504 45.2009 376.886 45.1152C378.856 44.6678 380.85 43.8254 382.739 43.1067C387.686 41.2315 394.145 39.8893 399.144 39.2325C402.822 38.7518 404.406 37.9713 408.828 37.7952C408.828 44.2871 405.713 50.6553 401.276 55.0863C400.212 56.1477 398.634 57.5042 396.993 58.18C393.176 59.7554 388.85 58.4561 384.933 57.152C381.909 56.1429 378.885 55.1387 375.865 54.1297C375.474 54.0012 375.073 53.8679 374.663 53.8632C374.086 53.8536 373.537 54.0964 373.008 54.3248C369.187 55.9811 365.237 57.3328 361.206 58.3656C359.651 58.7654 357.924 59.5174 356.322 59.4032C353.956 59.2366 351.036 57.785 349.252 56.2286C347.463 54.6723 345.951 53.0207 344.539 51.1169C343.113 49.1989 342.474 47.395 341.524 45.2009C340.57 43.0116 340.589 40.3129 341.195 37.938H341.186Z" fill="url(#paint6_linear_15832_810)" stroke="black" stroke-width="0.75" stroke-miterlimit="10"/>
<path d="M350.554 45.5391C356.904 46.0769 363.119 48.0997 368.562 51.4075C365.605 51.7216 362.914 52.307 359.961 52.6164C358.926 52.7259 357.595 52.5593 356.594 52.2785C355.663 52.0167 354.189 51.6978 353.469 51.0601C351.785 49.5751 351.093 47.4524 350.554 45.5391Z" fill="black" stroke="black" stroke-width="0.75" stroke-miterlimit="10"/>
<path d="M381.065 51.16C386.326 47.9806 392.289 47.0478 398.634 44.8965C398.853 47.4761 396.83 50.7697 394.464 51.831C392.9 52.5354 390.911 52.6306 389.193 52.6164C387.457 52.6021 385.344 52.2118 383.65 51.8215C382.601 51.5788 381.947 51.3408 380.855 51.2647C380.869 51.2837 380.865 51.2789 381.06 51.16H381.065Z" fill="black" stroke="black" stroke-width="0.75" stroke-miterlimit="10"/>
</g>
<defs>
<linearGradient id="paint0_linear_15832_810" x1="366.873" y1="-4.04052" x2="414.65" y2="49.9152" gradientUnits="userSpaceOnUse">
<stop offset="0.28" stop-color="#6A2FF2"/>
<stop offset="0.84" stop-color="#B273E3"/>
</linearGradient>
<linearGradient id="paint1_linear_15832_810" x1="336.039" y1="24.6543" x2="401.529" y2="24.6543" gradientUnits="userSpaceOnUse">
<stop stop-color="#00F1B2"/>
<stop offset="0.24" stop-color="#6A2FF2"/>
</linearGradient>
<linearGradient id="paint2_linear_15832_810" x1="339.077" y1="63.1396" x2="391.197" y2="38.6425" gradientUnits="userSpaceOnUse">
<stop stop-color="#00F1B2"/>
<stop offset="0.25" stop-color="#6A24F2"/>
</linearGradient>
<linearGradient id="paint3_linear_15832_810" x1="357.376" y1="89.8878" x2="411.194" y2="56.763" gradientUnits="userSpaceOnUse">
<stop stop-color="#00F1B2"/>
<stop offset="0.22" stop-color="#6A2FF2"/>
</linearGradient>
<linearGradient id="paint4_linear_15832_810" x1="411.079" y1="22.4793" x2="432.559" y2="15.4591" gradientUnits="userSpaceOnUse">
<stop stop-color="#B977E3"/>
<stop offset="0.74" stop-color="#6A2FF2"/>
</linearGradient>
<linearGradient id="paint5_linear_15832_810" x1="415.482" y1="36.991" x2="433.822" y2="31.9534" gradientUnits="userSpaceOnUse">
<stop stop-color="#B977E3"/>
<stop offset="0.5" stop-color="#6A2FF2"/>
</linearGradient>
<linearGradient id="paint6_linear_15832_810" x1="374.797" y1="59.4127" x2="374.797" y2="37.7952" gradientUnits="userSpaceOnUse">
<stop stop-color="white"/>
<stop offset="0.38" stop-color="#FDFDFD"/>
<stop offset="0.52" stop-color="#F6F6F6"/>
<stop offset="0.62" stop-color="#EAEAEA"/>
<stop offset="0.7" stop-color="#DAD9D9"/>
<stop offset="0.77" stop-color="#C4C3C3"/>
<stop offset="0.83" stop-color="#A9A8A8"/>
<stop offset="0.88" stop-color="#8A8788"/>
<stop offset="0.93" stop-color="#656262"/>
<stop offset="0.98" stop-color="#3C3939"/>
<stop offset="1" stop-color="#231F20"/>
</linearGradient>
<clipPath id="clip0_15832_810">
<rect width="434" height="112" fill="white" transform="translate(0 0.5)"/>
</clipPath>
</defs>
</svg>
